<svg width="85" height="85" viewBox="0 0 85 85" fill="none" xmlns="http://www.w3.org/2000/svg">
<path opacity="0.2" d="M18.0957 66.9043C15.041 63.8496 17.0664 57.4414 15.5059 53.6895C13.9453 49.9375 7.96875 46.6504 7.96875 42.5C7.96875 38.3496 13.8789 35.1953 15.5059 31.3105C17.1328 27.4258 15.041 21.1504 18.0957 18.0957C21.1504 15.041 27.5586 17.0664 31.3105 15.5059C35.0625 13.9453 38.3496 7.96875 42.5 7.96875C46.6504 7.96875 49.8047 13.8789 53.6895 15.5059C57.5742 17.1328 63.8496 15.041 66.9043 18.0957C69.959 21.1504 67.9336 27.5586 69.4941 31.3105C71.0547 35.0625 77.0312 38.3496 77.0312 42.5C77.0312 46.6504 71.1211 49.8047 69.4941 53.6895C67.8672 57.5742 69.959 63.8496 66.9043 66.9043C63.8496 69.959 57.4414 67.9336 53.6895 69.4941C49.9375 71.0547 46.6504 77.0312 42.5 77.0312C38.3496 77.0312 35.1953 71.1211 31.3105 69.4941C27.4258 67.8672 21.1504 69.959 18.0957 66.9043Z" fill="#FAFAFA"/>
<path d="M18.0957 66.9043C15.041 63.8496 17.0664 57.4414 15.5059 53.6895C13.9453 49.9375 7.96875 46.6504 7.96875 42.5C7.96875 38.3496 13.8789 35.1953 15.5059 31.3105C17.1328 27.4258 15.041 21.1504 18.0957 18.0957C21.1504 15.041 27.5586 17.0664 31.3105 15.5059C35.0625 13.9453 38.3496 7.96875 42.5 7.96875C46.6504 7.96875 49.8047 13.8789 53.6895 15.5059C57.5742 17.1328 63.8496 15.041 66.9043 18.0957C69.959 21.1504 67.9336 27.5586 69.4941 31.3105C71.0547 35.0625 77.0312 38.3496 77.0312 42.5C77.0312 46.6504 71.1211 49.8047 69.4941 53.6895C67.8672 57.5742 69.959 63.8496 66.9043 66.9043C63.8496 69.959 57.4414 67.9336 53.6895 69.4941C49.9375 71.0547 46.6504 77.0312 42.5 77.0312C38.3496 77.0312 35.1953 71.1211 31.3105 69.4941C27.4258 67.8672 21.1504 69.959 18.0957 66.9043Z" stroke="#FAFAFA" stroke-width="3" stroke-linecap="round" stroke-linejoin="round"/>
<path d="M57.1094 34.5312L37.6191 53.125L27.8906 43.8281" stroke="#FAFAFA" stroke-width="3" stroke-linecap="round" stroke-linejoin="round"/>
</svg>
