<svg width="85" height="85" viewBox="0 0 85 85" fill="none" xmlns="http://www.w3.org/2000/svg">
<path opacity="0.2" d="M13.2812 38.084V18.5937C13.2812 17.8893 13.5611 17.2136 14.0592 16.7155C14.5574 16.2174 15.233 15.9375 15.9375 15.9375H69.0625C69.767 15.9375 70.4426 16.2174 70.9408 16.7155C71.4389 17.2136 71.7188 17.8893 71.7188 18.5937V38.084C71.7188 65.9746 48.0449 75.2051 43.3301 76.7656C42.7945 76.9639 42.2055 76.9639 41.6699 76.7656C36.9551 75.2051 13.2812 65.9746 13.2812 38.084Z" fill="#FAFAFA"/>
<path d="M13.2812 38.084V18.5937C13.2812 17.8893 13.5611 17.2136 14.0592 16.7155C14.5574 16.2174 15.233 15.9375 15.9375 15.9375H69.0625C69.767 15.9375 70.4426 16.2174 70.9408 16.7155C71.4389 17.2136 71.7188 17.8893 71.7188 18.5937V38.084C71.7188 65.9746 48.0449 75.2051 43.3301 76.7656C42.7945 76.9639 42.2055 76.9639 41.6699 76.7656C36.9551 75.2051 13.2812 65.9746 13.2812 38.084Z" stroke="#FAFAFA" stroke-width="3" stroke-linecap="round" stroke-linejoin="round"/>
<path d="M57.1094 34.5312L37.6191 53.125L27.8906 43.8281" stroke="#FAFAFA" stroke-width="3" stroke-linecap="round" stroke-linejoin="round"/>
</svg>
