<svg width="85" height="85" viewBox="0 0 85 85" fill="none" xmlns="http://www.w3.org/2000/svg">
<path opacity="0.2" d="M66.4062 50.7676L54.1875 62.9863C53.8545 63.2977 53.451 63.5238 53.0115 63.6453C52.5721 63.7667 52.1097 63.7799 51.6641 63.6836L32.4062 58.8692C32.0545 58.7711 31.7267 58.6016 31.4434 58.3711L13.2812 44.1934L24.1055 23.8399L41.1387 18.8594C41.7439 18.6858 42.3911 18.7329 42.9648 18.9922L54.4531 24.2051H47.5801C47.2352 24.2039 46.8934 24.2707 46.5743 24.4017C46.2553 24.5328 45.9652 24.7255 45.7207 24.9688L32.7051 37.9512C32.4393 38.224 32.2345 38.5502 32.1043 38.9081C31.9741 39.266 31.9213 39.6475 31.9496 40.0273C31.9778 40.4071 32.0864 40.7766 32.2682 41.1113C32.4499 41.446 32.7007 41.7383 33.0039 41.9688L34.7969 43.3301C36.6382 44.7044 38.8743 45.4468 41.1719 45.4468C43.4695 45.4468 45.7056 44.7044 47.5469 43.3301L51.7969 40.1426L66.4062 50.7676Z" fill="#FAFAFA"/>
<path d="M79.9199 40.4414L71.7188 44.5254L61.0938 24.2051L69.3945 20.0547C70.0114 19.7403 70.7276 19.6825 71.3869 19.894C72.0462 20.1054 72.5952 20.569 72.9141 21.1836L81.082 36.8223C81.2477 37.1353 81.349 37.4784 81.3801 37.8312C81.4113 38.184 81.3715 38.5394 81.2632 38.8766C81.155 39.2138 80.9803 39.526 80.7496 39.7947C80.5189 40.0634 80.2368 40.2833 79.9199 40.4414V40.4414Z" stroke="#FAFAFA" stroke-width="3" stroke-linecap="round" stroke-linejoin="round"/>
<path d="M13.2812 44.1934L5.08 40.0762C4.76422 39.9214 4.48279 39.7047 4.25243 39.439C4.02208 39.1733 3.8475 38.864 3.73909 38.5295C3.63068 38.1949 3.59064 37.842 3.62135 37.4917C3.65207 37.1414 3.75292 36.8008 3.91789 36.4902L12.0859 20.8516C12.4054 20.2374 12.9521 19.7723 13.6094 19.5552C14.2668 19.3381 14.983 19.3863 15.6054 19.6895L23.9062 23.8398L13.2812 44.1934Z" stroke="#FAFAFA" stroke-width="3" stroke-linecap="round" stroke-linejoin="round"/>
<path d="M71.7188 44.5254L66.4062 50.7676L54.1875 62.9863C53.8545 63.2977 53.451 63.5238 53.0115 63.6453C52.5721 63.7667 52.1097 63.7798 51.6641 63.6836L32.4062 58.8691C32.0545 58.7711 31.7267 58.6015 31.4434 58.3711L13.2812 44.1934" stroke="#FAFAFA" stroke-width="3" stroke-linecap="round" stroke-linejoin="round"/>
<path d="M66.4062 50.7676L51.7969 40.1426L47.5469 43.3301C45.7056 44.7044 43.4695 45.4468 41.1719 45.4468C38.8743 45.4468 36.6382 44.7044 34.7969 43.3301L33.0039 41.9688C32.7007 41.7383 32.4499 41.446 32.2682 41.1113C32.0864 40.7766 31.9778 40.4071 31.9495 40.0273C31.9213 39.6475 31.974 39.266 32.1043 38.9081C32.2345 38.5502 32.4393 38.224 32.7051 37.9512L45.7207 24.9688C45.9652 24.7255 46.2553 24.5328 46.5743 24.4018C46.8934 24.2707 47.2352 24.2039 47.5801 24.2051H61.0937" stroke="#FAFAFA" stroke-width="3" stroke-linecap="round" stroke-linejoin="round"/>
<path d="M24.1055 23.8399L41.1387 18.8594C41.7439 18.6858 42.3911 18.7329 42.9648 18.9922L54.4531 24.2051" stroke="#FAFAFA" stroke-width="3" stroke-linecap="round" stroke-linejoin="round"/>
<path d="M37.1875 70.6895L27.1934 68.166C26.7861 68.074 26.409 67.8798 26.0977 67.6016L18.5938 61.0938" stroke="#FAFAFA" stroke-width="3" stroke-linecap="round" stroke-linejoin="round"/>
</svg>
