<svg width="100" height="100" viewBox="0 0 100 100" fill="none" xmlns="http://www.w3.org/2000/svg">
<circle cx="50" cy="50" r="50" fill="#0D3CE0"/>
<path opacity="0.2" d="M61.625 34.5H38.375V46.125H61.625V34.5Z" fill="#FAFAFA"/>
<path d="M61.625 34.5H38.375V46.125H61.625V34.5Z" stroke="#FAFAFA" stroke-width="2" stroke-linecap="round" stroke-linejoin="round"/>
<path d="M69.375 71.3125V28.6875C69.375 27.6174 68.5076 26.75 67.4375 26.75L32.5625 26.75C31.4924 26.75 30.625 27.6174 30.625 28.6875V71.3125C30.625 72.3826 31.4924 73.25 32.5625 73.25H67.4375C68.5076 73.25 69.375 72.3826 69.375 71.3125Z" stroke="#FAFAFA" stroke-width="2" stroke-linecap="round" stroke-linejoin="round"/>
<path d="M40.3125 57.75C41.9176 57.75 43.2188 56.4488 43.2188 54.8438C43.2188 53.2387 41.9176 51.9375 40.3125 51.9375C38.7074 51.9375 37.4062 53.2387 37.4062 54.8438C37.4062 56.4488 38.7074 57.75 40.3125 57.75Z" fill="#FAFAFA"/>
<path d="M50 57.75C51.6051 57.75 52.9062 56.4488 52.9062 54.8438C52.9062 53.2387 51.6051 51.9375 50 51.9375C48.3949 51.9375 47.0938 53.2387 47.0938 54.8438C47.0938 56.4488 48.3949 57.75 50 57.75Z" fill="#FAFAFA"/>
<path d="M59.6875 57.75C61.2926 57.75 62.5938 56.4488 62.5938 54.8438C62.5938 53.2387 61.2926 51.9375 59.6875 51.9375C58.0824 51.9375 56.7812 53.2387 56.7812 54.8438C56.7812 56.4488 58.0824 57.75 59.6875 57.75Z" fill="#FAFAFA"/>
<path d="M40.3125 67.4375C41.9176 67.4375 43.2188 66.1363 43.2188 64.5312C43.2188 62.9262 41.9176 61.625 40.3125 61.625C38.7074 61.625 37.4062 62.9262 37.4062 64.5312C37.4062 66.1363 38.7074 67.4375 40.3125 67.4375Z" fill="#FAFAFA"/>
<path d="M50 67.4375C51.6051 67.4375 52.9062 66.1363 52.9062 64.5312C52.9062 62.9262 51.6051 61.625 50 61.625C48.3949 61.625 47.0938 62.9262 47.0938 64.5312C47.0938 66.1363 48.3949 67.4375 50 67.4375Z" fill="#FAFAFA"/>
<path d="M59.6875 67.4375C61.2926 67.4375 62.5938 66.1363 62.5938 64.5312C62.5938 62.9262 61.2926 61.625 59.6875 61.625C58.0824 61.625 56.7812 62.9262 56.7812 64.5312C56.7812 66.1363 58.0824 67.4375 59.6875 67.4375Z" fill="#FAFAFA"/>
</svg>
