<svg width="100" height="100" viewBox="0 0 100 100" fill="none" xmlns="http://www.w3.org/2000/svg">
<circle cx="50" cy="50" r="50" fill="#0D3CE0"/>
<path opacity="0.2" d="M50 73.25C62.8406 73.25 73.25 62.8406 73.25 50C73.25 37.1594 62.8406 26.75 50 26.75C37.1594 26.75 26.75 37.1594 26.75 50C26.75 62.8406 37.1594 73.25 50 73.25Z" fill="#FAFAFA"/>
<path d="M50 73.25C62.8406 73.25 73.25 62.8406 73.25 50C73.25 37.1594 62.8406 26.75 50 26.75C37.1594 26.75 26.75 37.1594 26.75 50C26.75 62.8406 37.1594 73.25 50 73.25Z" stroke="#FAFAFA" stroke-width="2" stroke-linecap="round" stroke-linejoin="round"/>
<path d="M48.0625 48.0625H50V61.625H51.9375" stroke="#FAFAFA" stroke-width="2" stroke-linecap="round" stroke-linejoin="round"/>
<path d="M49.5156 42.25C51.1207 42.25 52.4219 40.9488 52.4219 39.3438C52.4219 37.7387 51.1207 36.4375 49.5156 36.4375C47.9105 36.4375 46.6094 37.7387 46.6094 39.3438C46.6094 40.9488 47.9105 42.25 49.5156 42.25Z" fill="#FAFAFA"/>
</svg>
