<svg width="74" height="74" viewBox="0 0 74 74" fill="none" xmlns="http://www.w3.org/2000/svg">
<path opacity="0.2" d="M37 64.75C52.3259 64.75 64.75 52.3259 64.75 37C64.75 21.6741 52.3259 9.25 37 9.25C21.6741 9.25 9.25 21.6741 9.25 37C9.25 52.3259 21.6741 64.75 37 64.75Z" fill="#FAFAFA"/>
<path d="M49.7188 30.0625L32.7508 46.25L24.2812 38.1562" stroke="#FAFAFA" stroke-width="3" stroke-linecap="round" stroke-linejoin="round"/>
<path d="M37 64.75C52.3259 64.75 64.75 52.3259 64.75 37C64.75 21.6741 52.3259 9.25 37 9.25C21.6741 9.25 9.25 21.6741 9.25 37C9.25 52.3259 21.6741 64.75 37 64.75Z" stroke="#FAFAFA" stroke-width="3" stroke-linecap="round" stroke-linejoin="round"/>
</svg>
