<svg width="145" height="28" viewBox="0 0 145 28" fill="none" xmlns="http://www.w3.org/2000/svg">
<path d="M1.962 21V8.4H12.816V21H11.052V9.498L11.484 9.966H3.294L3.744 9.498V21H1.962ZM20.5432 21.108C19.5832 21.108 18.7312 20.898 17.9872 20.478C17.2432 20.058 16.6552 19.482 16.2232 18.75C15.7912 18.006 15.5752 17.166 15.5752 16.23C15.5752 15.282 15.7912 14.442 16.2232 13.71C16.6552 12.978 17.2432 12.408 17.9872 12C18.7312 11.58 19.5832 11.37 20.5432 11.37C21.4912 11.37 22.3372 11.58 23.0812 12C23.8372 12.408 24.4252 12.978 24.8452 13.71C25.2772 14.43 25.4932 15.27 25.4932 16.23C25.4932 17.178 25.2772 18.018 24.8452 18.75C24.4252 19.482 23.8372 20.058 23.0812 20.478C22.3372 20.898 21.4912 21.108 20.5432 21.108ZM20.5432 19.596C21.1552 19.596 21.7012 19.458 22.1812 19.182C22.6732 18.906 23.0572 18.516 23.3332 18.012C23.6092 17.496 23.7472 16.902 23.7472 16.23C23.7472 15.546 23.6092 14.958 23.3332 14.466C23.0572 13.962 22.6732 13.572 22.1812 13.296C21.7012 13.02 21.1552 12.882 20.5432 12.882C19.9312 12.882 19.3852 13.02 18.9052 13.296C18.4252 13.572 18.0412 13.962 17.7532 14.466C17.4652 14.958 17.3212 15.546 17.3212 16.23C17.3212 16.902 17.4652 17.496 17.7532 18.012C18.0412 18.516 18.4252 18.906 18.9052 19.182C19.3852 19.458 19.9312 19.596 20.5432 19.596ZM34.4341 20.19V12.972H30.2941L30.2041 14.808C30.1801 15.408 30.1381 15.99 30.0781 16.554C30.0301 17.106 29.9461 17.616 29.8261 18.084C29.7181 18.552 29.5561 18.936 29.3401 19.236C29.1241 19.536 28.8361 19.722 28.4761 19.794L26.7661 19.488C27.1381 19.5 27.4381 19.38 27.6661 19.128C27.8941 18.864 28.0681 18.504 28.1881 18.048C28.3201 17.592 28.4161 17.076 28.4761 16.5C28.5361 15.912 28.5841 15.306 28.6201 14.682L28.7641 11.46H36.1621V20.19H34.4341ZM26.3881 23.214V19.488H37.6201V23.214H36.0001V21H28.0261V23.214H26.3881ZM44.9293 21.108C44.1373 21.108 43.4113 20.928 42.7513 20.568C42.1033 20.196 41.5813 19.65 41.1853 18.93C40.8013 18.21 40.6093 17.31 40.6093 16.23C40.6093 15.15 40.7953 14.25 41.1673 13.53C41.5513 12.81 42.0673 12.27 42.7153 11.91C43.3753 11.55 44.1133 11.37 44.9293 11.37C45.8653 11.37 46.6933 11.574 47.4133 11.982C48.1333 12.39 48.7033 12.96 49.1233 13.692C49.5433 14.412 49.7533 15.258 49.7533 16.23C49.7533 17.202 49.5433 18.054 49.1233 18.786C48.7033 19.518 48.1333 20.088 47.4133 20.496C46.6933 20.904 45.8653 21.108 44.9293 21.108ZM39.8713 24.492V11.46H41.5273V14.034L41.4193 16.248L41.5993 18.462V24.492H39.8713ZM44.7853 19.596C45.3973 19.596 45.9433 19.458 46.4233 19.182C46.9153 18.906 47.2993 18.516 47.5753 18.012C47.8633 17.496 48.0073 16.902 48.0073 16.23C48.0073 15.546 47.8633 14.958 47.5753 14.466C47.2993 13.962 46.9153 13.572 46.4233 13.296C45.9433 13.02 45.3973 12.882 44.7853 12.882C44.1853 12.882 43.6393 13.02 43.1473 13.296C42.6673 13.572 42.2833 13.962 41.9953 14.466C41.7193 14.958 41.5813 15.546 41.5813 16.23C41.5813 16.902 41.7193 17.496 41.9953 18.012C42.2833 18.516 42.6673 18.906 43.1473 19.182C43.6393 19.458 44.1853 19.596 44.7853 19.596ZM56.3498 21.108C55.3898 21.108 54.5378 20.898 53.7938 20.478C53.0498 20.058 52.4618 19.482 52.0298 18.75C51.5978 18.006 51.3818 17.166 51.3818 16.23C51.3818 15.282 51.5978 14.442 52.0298 13.71C52.4618 12.978 53.0498 12.408 53.7938 12C54.5378 11.58 55.3898 11.37 56.3498 11.37C57.2978 11.37 58.1438 11.58 58.8878 12C59.6438 12.408 60.2318 12.978 60.6518 13.71C61.0838 14.43 61.2998 15.27 61.2998 16.23C61.2998 17.178 61.0838 18.018 60.6518 18.75C60.2318 19.482 59.6438 20.058 58.8878 20.478C58.1438 20.898 57.2978 21.108 56.3498 21.108ZM56.3498 19.596C56.9618 19.596 57.5078 19.458 57.9878 19.182C58.4798 18.906 58.8638 18.516 59.1398 18.012C59.4158 17.496 59.5538 16.902 59.5538 16.23C59.5538 15.546 59.4158 14.958 59.1398 14.466C58.8638 13.962 58.4798 13.572 57.9878 13.296C57.5078 13.02 56.9618 12.882 56.3498 12.882C55.7378 12.882 55.1918 13.02 54.7118 13.296C54.2318 13.572 53.8478 13.962 53.5598 14.466C53.2718 14.958 53.1278 15.546 53.1278 16.23C53.1278 16.902 53.2718 17.496 53.5598 18.012C53.8478 18.516 54.2318 18.906 54.7118 19.182C55.1918 19.458 55.7378 19.596 56.3498 19.596ZM68.2051 21.144C67.4131 21.144 66.7111 21.018 66.0991 20.766C65.4991 20.514 64.9831 20.142 64.5511 19.65C64.1191 19.146 63.7891 18.516 63.5611 17.76C63.3451 16.992 63.2371 16.092 63.2371 15.06C63.2371 14.244 63.3091 13.512 63.4531 12.864C63.5971 12.216 63.8011 11.64 64.0651 11.136C64.3411 10.632 64.6771 10.194 65.0731 9.822C65.4811 9.45 65.9371 9.144 66.4411 8.904C66.9571 8.652 67.5211 8.46 68.1331 8.328L72.4891 7.356L72.7411 8.958L68.7271 9.822C68.4871 9.87 68.1991 9.942 67.8631 10.038C67.5271 10.134 67.1851 10.284 66.8371 10.488C66.4891 10.68 66.1651 10.95 65.8651 11.298C65.5651 11.646 65.3251 12.102 65.1451 12.666C64.9651 13.218 64.8751 13.902 64.8751 14.718C64.8751 14.946 64.8811 15.12 64.8931 15.24C64.9051 15.36 64.9171 15.48 64.9291 15.6C64.9531 15.72 64.9711 15.9 64.9831 16.14L64.2631 15.402C64.4551 14.742 64.7611 14.166 65.1811 13.674C65.6011 13.182 66.1051 12.804 66.6931 12.54C67.2931 12.264 67.9471 12.126 68.6551 12.126C69.5431 12.126 70.3291 12.318 71.0131 12.702C71.7091 13.086 72.2551 13.614 72.6511 14.286C73.0471 14.958 73.2451 15.726 73.2451 16.59C73.2451 17.466 73.0351 18.252 72.6151 18.948C72.2071 19.632 71.6251 20.172 70.8691 20.568C70.1131 20.952 69.2251 21.144 68.2051 21.144ZM68.3671 19.704C68.9791 19.704 69.5191 19.572 69.9871 19.308C70.4551 19.032 70.8211 18.666 71.0851 18.21C71.3491 17.742 71.4811 17.22 71.4811 16.644C71.4811 16.068 71.3491 15.558 71.0851 15.114C70.8211 14.67 70.4551 14.322 69.9871 14.07C69.5191 13.806 68.9671 13.674 68.3311 13.674C67.7311 13.674 67.1911 13.8 66.7111 14.052C66.2311 14.292 65.8591 14.634 65.5951 15.078C65.3311 15.51 65.1991 16.014 65.1991 16.59C65.1991 17.166 65.3311 17.694 65.5951 18.174C65.8711 18.642 66.2431 19.014 66.7111 19.29C67.1911 19.566 67.7431 19.704 68.3671 19.704ZM75.7131 21V11.46H77.4411V15.51H82.8771V11.46H84.6051V21H82.8771V17.004H77.4411V21H75.7131ZM92.213 21.108C91.193 21.108 90.293 20.898 89.513 20.478C88.745 20.058 88.145 19.482 87.713 18.75C87.293 18.018 87.083 17.178 87.083 16.23C87.083 15.282 87.287 14.442 87.695 13.71C88.115 12.978 88.685 12.408 89.405 12C90.137 11.58 90.959 11.37 91.871 11.37C92.795 11.37 93.611 11.574 94.319 11.982C95.027 12.39 95.579 12.966 95.975 13.71C96.383 14.442 96.587 15.3 96.587 16.284C96.587 16.356 96.581 16.44 96.569 16.536C96.569 16.632 96.563 16.722 96.551 16.806H88.433V15.564H95.651L94.949 15.996C94.961 15.384 94.835 14.838 94.571 14.358C94.307 13.878 93.941 13.506 93.473 13.242C93.017 12.966 92.483 12.828 91.871 12.828C91.271 12.828 90.737 12.966 90.269 13.242C89.801 13.506 89.435 13.884 89.171 14.376C88.907 14.856 88.775 15.408 88.775 16.032V16.32C88.775 16.956 88.919 17.526 89.207 18.03C89.507 18.522 89.921 18.906 90.449 19.182C90.977 19.458 91.583 19.596 92.267 19.596C92.831 19.596 93.341 19.5 93.797 19.308C94.265 19.116 94.673 18.828 95.021 18.444L95.975 19.56C95.543 20.064 95.003 20.448 94.355 20.712C93.719 20.976 93.005 21.108 92.213 21.108ZM103.516 21.108C102.496 21.108 101.596 20.898 100.816 20.478C100.048 20.058 99.4478 19.482 99.0158 18.75C98.5958 18.018 98.3858 17.178 98.3858 16.23C98.3858 15.282 98.5898 14.442 98.9978 13.71C99.4178 12.978 99.9878 12.408 100.708 12C101.44 11.58 102.262 11.37 103.174 11.37C104.098 11.37 104.914 11.574 105.622 11.982C106.33 12.39 106.882 12.966 107.278 13.71C107.686 14.442 107.89 15.3 107.89 16.284C107.89 16.356 107.884 16.44 107.872 16.536C107.872 16.632 107.866 16.722 107.854 16.806H99.7358V15.564H106.954L106.252 15.996C106.264 15.384 106.138 14.838 105.874 14.358C105.61 13.878 105.244 13.506 104.776 13.242C104.32 12.966 103.786 12.828 103.174 12.828C102.574 12.828 102.04 12.966 101.572 13.242C101.104 13.506 100.738 13.884 100.474 14.376C100.21 14.856 100.078 15.408 100.078 16.032V16.32C100.078 16.956 100.222 17.526 100.51 18.03C100.81 18.522 101.224 18.906 101.752 19.182C102.28 19.458 102.886 19.596 103.57 19.596C104.134 19.596 104.644 19.5 105.1 19.308C105.568 19.116 105.976 18.828 106.324 18.444L107.278 19.56C106.846 20.064 106.306 20.448 105.658 20.712C105.022 20.976 104.308 21.108 103.516 21.108Z" fill="white"/>
<path d="M125.75 18.375L138 6.125" stroke="white" stroke-width="1.5" stroke-linecap="round" stroke-linejoin="round"/>
<path d="M138 17.0625V6.125H127.062" stroke="white" stroke-width="1.5" stroke-linecap="round" stroke-linejoin="round"/>
<path d="M121.375 23.625H140.625" stroke="white" stroke-width="1.5" stroke-linecap="round" stroke-linejoin="round"/>
</svg>
