<svg width="74" height="74" viewBox="0 0 74 74" fill="none" xmlns="http://www.w3.org/2000/svg">
<path opacity="0.2" d="M37 64.75C52.3259 64.75 64.75 52.3259 64.75 37C64.75 21.6741 52.3259 9.25 37 9.25C21.6741 9.25 9.25 21.6741 9.25 37C9.25 52.3259 21.6741 64.75 37 64.75Z" fill="#FAFAFA"/>
<path d="M37 64.75C52.3259 64.75 64.75 52.3259 64.75 37C64.75 21.6741 52.3259 9.25 37 9.25C21.6741 9.25 9.25 21.6741 9.25 37C9.25 52.3259 21.6741 64.75 37 64.75Z" stroke="#FAFAFA" stroke-width="3" stroke-miterlimit="10"/>
<path d="M30.0625 24.2812H43.9375L35.8438 35.8438C37.1747 35.8438 38.4852 36.1722 39.6589 36.7997C40.8327 37.4272 41.8336 38.3344 42.5731 39.4411C43.3125 40.5478 43.7675 41.8198 43.898 43.1444C44.0284 44.469 43.8301 45.8053 43.3208 47.0349C42.8114 48.2646 42.0067 49.3497 40.9778 50.194C39.949 51.0384 38.7277 51.616 37.4223 51.8757C36.1169 52.1354 34.7676 52.0691 33.494 51.6828C32.2203 51.2965 31.0615 50.602 30.1203 49.6609" stroke="#FAFAFA" stroke-width="3" stroke-linecap="round" stroke-linejoin="round"/>
</svg>
