<svg width="74" height="74" viewBox="0 0 74 74" fill="none" xmlns="http://www.w3.org/2000/svg">
<path opacity="0.2" d="M37 64.75C52.3259 64.75 64.75 52.3259 64.75 37C64.75 21.6741 52.3259 9.25 37 9.25C21.6741 9.25 9.25 21.6741 9.25 37C9.25 52.3259 21.6741 64.75 37 64.75Z" fill="#FAFAFA"/>
<path d="M37 64.75C52.3259 64.75 64.75 52.3259 64.75 37C64.75 21.6741 52.3259 9.25 37 9.25C21.6741 9.25 9.25 21.6741 9.25 37C9.25 52.3259 21.6741 64.75 37 64.75Z" stroke="#FAFAFA" stroke-width="3" stroke-miterlimit="10"/>
<path d="M30.0046 37.5781L39.3125 21.9688" stroke="#FAFAFA" stroke-width="3" stroke-linecap="round" stroke-linejoin="round"/>
<path d="M37 49.7188C41.4701 49.7188 45.0938 46.0951 45.0938 41.625C45.0938 37.1549 41.4701 33.5312 37 33.5312C32.5299 33.5312 28.9062 37.1549 28.9062 41.625C28.9062 46.0951 32.5299 49.7188 37 49.7188Z" stroke="#FAFAFA" stroke-width="3" stroke-linecap="round" stroke-linejoin="round"/>
</svg>
