<svg width="74" height="74" viewBox="0 0 74 74" fill="none" xmlns="http://www.w3.org/2000/svg">
<path opacity="0.2" d="M37 64.75C52.3259 64.75 64.75 52.3259 64.75 37C64.75 21.6741 52.3259 9.25 37 9.25C21.6741 9.25 9.25 21.6741 9.25 37C9.25 52.3259 21.6741 64.75 37 64.75Z" fill="#FAFAFA"/>
<path d="M37 64.75C52.3259 64.75 64.75 52.3259 64.75 37C64.75 21.6741 52.3259 9.25 37 9.25C21.6741 9.25 9.25 21.6741 9.25 37C9.25 52.3259 21.6741 64.75 37 64.75Z" stroke="#FAFAFA" stroke-width="3" stroke-miterlimit="10"/>
<path d="M30.6117 27.3742C31.2352 25.9019 32.3481 24.6901 33.7622 23.9439C35.1762 23.1977 36.8046 22.9628 38.3719 23.279C39.9392 23.5952 41.3492 24.443 42.3634 25.6791C43.3775 26.9152 43.9336 28.4636 43.9375 30.0625C43.9437 31.4438 43.5305 32.7945 42.7523 33.9359V33.9359L30.0625 50.875H43.9375" stroke="#FAFAFA" stroke-width="3" stroke-linecap="round" stroke-linejoin="round"/>
</svg>
