<svg width="74" height="74" viewBox="0 0 74 74" fill="none" xmlns="http://www.w3.org/2000/svg">
<path opacity="0.2" d="M37 64.75C52.3259 64.75 64.75 52.3259 64.75 37C64.75 21.6741 52.3259 9.25 37 9.25C21.6741 9.25 9.25 21.6741 9.25 37C9.25 52.3259 21.6741 64.75 37 64.75Z" fill="#FAFAFA"/>
<path d="M37 64.75C52.3259 64.75 64.75 52.3259 64.75 37C64.75 21.6741 52.3259 9.25 37 9.25C21.6741 9.25 9.25 21.6741 9.25 37C9.25 52.3259 21.6741 64.75 37 64.75Z" stroke="#FAFAFA" stroke-width="3" stroke-miterlimit="10"/>
<path d="M43.9375 24.2812H32.3172L30.0625 38.2141C31.1945 37.0822 32.6366 36.3114 34.2066 35.9992C35.7767 35.687 37.404 35.8473 38.8829 36.4599C40.3618 37.0725 41.6258 38.1099 42.5151 39.4409C43.4044 40.7719 43.8791 42.3367 43.8791 43.9375C43.8791 45.5383 43.4044 47.1031 42.5151 48.4341C41.6258 49.7651 40.3618 50.8024 38.8829 51.4151C37.404 52.0277 35.7767 52.188 34.2066 51.8758C32.6366 51.5636 31.1945 50.7928 30.0625 49.6609" stroke="#FAFAFA" stroke-width="3" stroke-linecap="round" stroke-linejoin="round"/>
</svg>
